<svg width="60" height="60" viewBox="0 0 60 60" fill="none" xmlns="http://www.w3.org/2000/svg">
<g clip-path="url(#clip0_86_337)">
<path fill-rule="evenodd" clip-rule="evenodd" d="M60 30C60 46.5686 46.5686 60 30 60C13.4315 60 0 46.5686 0 30C0 13.4315 13.4315 0 30 0C46.5686 0 60 13.4315 60 30ZM33.2142 13.9286C33.2142 12.1534 31.7751 10.7143 29.9999 10.7143C28.2247 10.7143 26.7856 12.1534 26.7856 13.9286V16.1164C22.7707 16.5425 19.6429 19.9398 19.6429 24.0676C19.6429 27.8254 22.2594 31.0761 25.9304 31.8792L32.2436 33.2602C33.2262 33.4751 33.9285 34.347 33.9285 35.3551C33.9285 36.54 32.9676 37.4999 31.7857 37.4999H28.2143C27.2863 37.4999 26.4883 36.9082 26.1926 36.0716C25.601 34.3979 23.7646 33.5206 22.0909 34.1122C20.4171 34.7038 19.5399 36.5402 20.1315 38.2139C21.1535 41.1055 23.6849 43.29 26.7856 43.8099V46.0714C26.7856 47.8466 28.2247 49.2857 29.9999 49.2857C31.7751 49.2857 33.2142 47.8466 33.2142 46.0714V43.8099C37.2691 43.1293 40.3571 39.601 40.3571 35.3551C40.3571 31.3282 37.5535 27.8411 33.6174 26.9801L27.3041 25.5991C26.5845 25.4416 26.0715 24.8043 26.0715 24.0676C26.0715 23.2019 26.7733 22.5 27.6391 22.5H31.7857C32.42 22.5 32.9867 22.7715 33.3837 23.2151C33.5701 23.4234 33.7146 23.6655 33.8074 23.9283C34.399 25.602 36.2354 26.4792 37.9091 25.8877C39.5829 25.2961 40.4601 23.4597 39.8685 21.786C39.4911 20.718 38.9097 19.75 38.1738 18.9278C36.9088 17.5144 35.1738 16.5196 33.2142 16.1902V13.9286Z" fill="#191919"/>
</g>
<defs>
<clipPath id="clip0_86_337">
<rect width="60" height="60" fill="white"/>
</clipPath>
</defs>
</svg>
