<svg width="61" height="61" viewBox="0 0 61 61" fill="none" xmlns="http://www.w3.org/2000/svg">
<path fill-rule="evenodd" clip-rule="evenodd" d="M5.12246 26.4943L15.1207 23.8152C15.1309 23.7499 15.1436 23.6845 15.1588 23.6191L18.5105 9.17649L24.4716 7.5792L24.4583 7.63955L21.0747 22.2199L33.5954 18.8649L33.6074 18.8125L37.0775 4.20146L43.0555 2.59966L43.0457 2.64243L39.5732 17.2632L56.5131 12.7242L54.2082 4.12212C53.5851 1.79773 51.1961 0.41833 48.8715 1.04115L5.89846 12.5558C3.57409 13.1786 2.1947 15.5678 2.81752 17.8921L5.12246 26.4943ZM5.12843 26.4943H58.3317V55.7514C58.3317 58.1574 56.3811 60.1086 53.9746 60.1086H9.48557C7.07921 60.1086 5.12843 58.1574 5.12843 55.7514V26.4943ZM14.6012 48.2937C14.6012 46.7901 15.8204 45.5705 17.3244 45.5705H23.2697C24.7737 45.5705 25.993 46.7901 25.993 48.2937C25.993 49.7978 24.7737 51.017 23.2697 51.017H17.3244C15.8204 51.017 14.6012 49.7978 14.6012 48.2937Z" fill="#191919"/>
</svg>
