<svg width="53" height="53" viewBox="0 0 53 53" fill="none" xmlns="http://www.w3.org/2000/svg">
<g clip-path="url(#clip0_126_63)">
<path fill-rule="evenodd" clip-rule="evenodd" d="M53 26.5C53 41.1356 41.1356 53 26.5 53C11.8645 53 0 41.1356 0 26.5C0 11.8645 11.8645 0 26.5 0C41.1356 0 53 11.8645 53 26.5ZM21.7679 19.875C21.7679 17.2615 23.8865 15.1429 26.5 15.1429C29.1135 15.1429 31.2321 17.2615 31.2321 19.875C31.2321 22.4885 29.1135 24.6071 26.5 24.6071C24.9319 24.6071 23.6607 25.8783 23.6607 27.4464V29.8938C23.6607 31.4619 24.9319 32.7331 26.5 32.7331C28.0681 32.7331 29.3393 31.4619 29.3393 29.8938C33.7089 28.6579 36.9107 24.6404 36.9107 19.875C36.9107 14.1253 32.2497 9.46429 26.5 9.46429C20.7503 9.46429 16.0893 14.1253 16.0893 19.875C16.0893 21.4431 17.3605 22.7143 18.9286 22.7143C20.4967 22.7143 21.7679 21.4431 21.7679 19.875ZM30.2857 39.75C30.2857 41.8409 28.5908 43.5357 26.5 43.5357C24.4092 43.5357 22.7143 41.8409 22.7143 39.75C22.7143 37.6592 24.4092 35.9643 26.5 35.9643C28.5908 35.9643 30.2857 37.6592 30.2857 39.75Z" fill="#191919"/>
</g>
<defs>
<clipPath id="clip0_126_63">
<rect width="53" height="53" fill="white"/>
</clipPath>
</defs>
</svg>
