<svg width="60" height="60" viewBox="0 0 60 60" fill="none" xmlns="http://www.w3.org/2000/svg">
<g clip-path="url(#clip0_86_341)">
<path fill-rule="evenodd" clip-rule="evenodd" d="M30 60C46.5686 60 60 46.5686 60 30C60 13.4315 46.5686 0 30 0C13.4315 0 0 13.4315 0 30C0 46.5686 13.4315 60 30 60ZM23.5714 40.1786C22.0921 40.1786 20.8929 41.3778 20.8929 42.8571C20.8929 44.3366 22.0921 45.5357 23.5714 45.5357H36.4286C37.9079 45.5357 39.1071 44.3366 39.1071 42.8571C39.1071 41.3778 37.9079 40.1786 36.4286 40.1786H32.6786V27.8571C32.6786 26.3778 31.4793 25.1786 30 25.1786H25.7143C24.2349 25.1786 23.0357 26.3778 23.0357 27.8571C23.0357 29.3365 24.2349 30.5357 25.7143 30.5357H27.3214V40.1786H23.5714ZM34.2857 17.1429C34.2857 19.5098 32.3669 21.4286 30 21.4286C27.6331 21.4286 25.7143 19.5098 25.7143 17.1429C25.7143 14.7759 27.6331 12.8571 30 12.8571C32.3669 12.8571 34.2857 14.7759 34.2857 17.1429Z" fill="#191919"/>
</g>
<defs>
<clipPath id="clip0_86_341">
<rect width="60" height="60" fill="white"/>
</clipPath>
</defs>
</svg>
