<svg width="38" height="320" viewBox="0 0 38 320" fill="none" xmlns="http://www.w3.org/2000/svg">
<path d="M18.9378 282.333C8.62851 282.368 0.299058 290.753 0.333422 301.062C0.367786 311.371 8.75295 319.701 19.0622 319.667C29.3715 319.632 37.7009 311.247 37.6665 300.938C37.6322 290.628 29.247 282.299 18.9378 282.333ZM14.5 1.01167L14.5227 7.82985L21.5227 7.80651L21.5 0.988334L14.5 1.01167ZM14.5682 21.4662L14.6137 35.1026L21.6136 35.0792L21.5682 21.4429L14.5682 21.4662ZM14.6591 48.7389L14.7046 62.3753L21.7045 62.352L21.6591 48.7156L14.6591 48.7389ZM14.75 76.0117L14.7955 89.648L21.7954 89.6247L21.75 75.9883L14.75 76.0117ZM14.8409 103.284L14.8864 116.921L21.8863 116.897L21.8409 103.261L14.8409 103.284ZM14.9318 130.557L14.9773 144.193L21.9772 144.17L21.9318 130.534L14.9318 130.557ZM15.0227 157.83L15.0682 171.466L22.0682 171.443L22.0227 157.807L15.0227 157.83ZM15.1136 185.103L15.1591 198.739L22.1591 198.716L22.1136 185.079L15.1136 185.103ZM15.2046 212.375L15.25 226.012L22.25 225.988L22.2045 212.352L15.2046 212.375ZM15.2955 239.648L15.3409 253.284L22.3409 253.261L22.2954 239.625L15.2955 239.648ZM15.3864 266.921L15.4318 280.557L22.4318 280.534L22.3863 266.897L15.3864 266.921ZM15.4773 294.194L15.5 301.012L22.5 300.988L22.4772 294.17L15.4773 294.194Z" fill="url(#paint0_linear_86_369)"/>
<defs>
<linearGradient id="paint0_linear_86_369" x1="18.5" y1="301.002" x2="17.5" y2="1.00167" gradientUnits="userSpaceOnUse">
<stop stop-color="white"/>
<stop offset="1" stop-color="#999999" stop-opacity="0"/>
</linearGradient>
</defs>
</svg>
