<svg width="70" height="70" viewBox="0 0 70 70" fill="none" xmlns="http://www.w3.org/2000/svg">
<path d="M35.0002 64.1663C34.3196 64.1663 33.7363 63.9719 33.2502 63.583C32.7641 63.1941 32.3995 62.6837 32.1564 62.0518C31.2328 59.3295 30.0661 56.7774 28.6564 54.3955C27.2953 52.0136 25.3752 49.2184 22.896 46.0101C20.4168 42.8018 18.3995 39.7393 16.8439 36.8226C15.337 33.9059 14.5835 30.3816 14.5835 26.2497C14.5835 20.5622 16.5522 15.7497 20.4897 11.8122C24.4759 7.82606 29.3127 5.83301 35.0002 5.83301C40.6877 5.83301 45.5002 7.82606 49.4377 11.8122C53.4238 15.7497 55.4168 20.5622 55.4168 26.2497C55.4168 30.6733 54.5661 34.3677 52.8647 37.333C51.212 40.2497 49.2918 43.142 47.1043 46.0101C44.4793 49.5101 42.4863 52.4268 41.1252 54.7601C39.8127 57.0448 38.7189 59.4754 37.8439 62.0518C37.6009 62.7323 37.212 63.267 36.6772 63.6559C36.1911 63.9962 35.6321 64.1663 35.0002 64.1663ZM35.0002 33.5413C37.0418 33.5413 38.7675 32.8365 40.1772 31.4268C41.587 30.017 42.2918 28.2913 42.2918 26.2497C42.2918 24.208 41.587 22.4823 40.1772 21.0726C38.7675 19.6629 37.0418 18.958 35.0002 18.958C32.9585 18.958 31.2328 19.6629 29.8231 21.0726C28.4134 22.4823 27.7085 24.208 27.7085 26.2497C27.7085 28.2913 28.4134 30.017 29.8231 31.4268C31.2328 32.8365 32.9585 33.5413 35.0002 33.5413Z" fill="#191919"/>
</svg>
